<svg width="62" height="72" viewBox="0 0 62 72" fill="none" xmlns="http://www.w3.org/2000/svg">
<path fill-rule="evenodd" clip-rule="evenodd" d="M28.8988 0.0551094C28.7995 0.0755133 28.3627 0.157858 27.9281 0.238016C27.4936 0.318265 27.138 0.414363 27.138 0.451618C27.138 0.488873 27.2988 0.801398 27.4954 1.14626C28.2009 2.38388 28.6709 4.36643 28.5496 5.59321L28.495 6.14539L29.3583 6.54855C31.0246 7.3269 32.8844 8.71554 33.9798 9.99944C34.6835 10.8242 34.9941 11.2879 35.4287 12.1627C36.4782 14.2749 36.6821 16.3516 36.0725 18.7196C35.6637 20.3078 35.2377 20.8107 34.3008 20.8107C33.7721 20.8107 33.4571 20.6271 33.1137 20.1191C32.8522 19.7321 32.8804 19.2068 33.2306 17.9414C33.4428 17.1749 33.4663 16.9511 33.4361 15.983C33.4102 15.1521 33.3532 14.7479 33.1986 14.2978C32.6594 12.7284 31.4027 11.2401 29.6212 10.0613C28.9075 9.58909 27.8504 9.01468 27.6952 9.01468C27.6511 9.01468 27.4593 9.26927 27.2689 9.58052C26.1658 11.3833 24.1043 12.7929 22.0395 13.156C21.041 13.3317 20.5043 13.332 19.512 13.1574C17.34 12.7754 15.3033 11.3492 14.2702 9.48679C14.0559 9.10039 13.8631 8.85236 13.7959 8.87686C13.6714 8.92222 9.60263 12.0741 7.81379 13.5109C3.90056 16.6539 1.99568 19.7237 1.27771 24.0443C0.937185 26.0938 0.201151 32.9124 0.0454739 35.4607C-0.125735 38.2633 0.178305 40.3437 1.09711 42.6557C2.13998 45.2803 3.37664 46.8987 6.32384 49.4966C7.62064 50.6396 12.7343 54.8972 16.0311 57.5787C22.8099 63.0923 25.9178 64.7848 29.708 65.027C34.0018 65.3015 37.0338 64.1334 42.2655 60.1895C45.3018 57.9005 54.3661 50.4234 56.2304 48.6698C58.4827 46.5513 59.7527 44.6661 60.6394 42.1254C61.2095 40.4917 61.3756 39.5542 61.427 37.6798C61.4886 35.4305 61.3085 33.5621 60.4069 27.0958C59.8268 22.9355 59.4622 21.4796 58.524 19.5763C57.3139 17.1214 56.069 15.7079 52.7831 13.0576C50.357 11.1008 45.3331 7.15766 43.5829 5.83651C38.754 2.1915 35.8638 0.634615 33.0141 0.143557C32.2275 0.00801665 29.4219 -0.0522841 28.8988 0.0551094ZM20.1849 0.241932C18.6655 0.498256 17.1721 1.68414 16.5211 3.15149C16.2778 3.69975 16.0304 4.83362 16.0326 5.39008C16.0369 6.46839 16.5838 7.93018 17.2912 8.75462C17.7588 9.29942 18.5181 9.80506 19.2717 10.0734C20.1166 10.3744 21.427 10.3744 22.272 10.0734C23.8425 9.51421 25.0303 8.18814 25.4635 6.5102C25.6385 5.83223 25.6417 4.47883 25.4697 3.82673C25.0088 2.07983 23.6535 0.716686 21.9825 0.319358C21.4359 0.189374 20.6877 0.157129 20.1849 0.241932ZM50.7128 27.1563C50.2782 27.2822 49.4618 28.157 49.0611 28.9262C46.7088 33.4417 47.4954 42.1403 50.3336 42.998C51.3345 43.3005 52.5166 42.2108 53.2421 40.3167C55.0337 35.6401 54.2657 28.4194 51.8514 27.2404C51.4301 27.0347 51.193 27.0172 50.7128 27.1563ZM37.9599 32.1818C36.4488 32.7505 35.211 34.3794 34.5003 36.7345C34.0983 38.067 33.9031 39.5124 33.9016 41.169C33.8993 43.7534 34.2893 45.7444 35.1811 47.7027C35.9004 49.2821 36.9222 50.4687 38.0421 51.0248C38.5744 51.2891 38.7347 51.3254 39.3717 51.3253C39.9746 51.3253 40.1857 51.2828 40.6315 51.0723C41.6447 50.5938 42.4455 49.7225 43.1197 48.365C45.7125 43.1442 44.2268 34.4865 40.3827 32.4154C39.8999 32.1553 39.7221 32.1111 39.0575 32.0862C38.5641 32.0678 38.1721 32.1019 37.9599 32.1818ZM51.248 56.7107C43.7884 62.8993 40.5167 65.2548 37.5576 66.5674C33.3086 68.4521 28.7109 68.5206 24.4858 66.7621C21.401 65.4782 18.4894 63.4253 11.2229 57.4106C9.99381 56.3933 8.9522 55.561 8.90813 55.561C8.6906 55.561 8.55398 57.2798 8.7111 58.0403C8.93125 59.1059 9.6923 60.2334 10.6869 60.9676C11.3756 61.4759 26.0349 70.2274 26.8224 70.6004C29.5931 71.9127 32.8842 71.8947 35.6713 70.5523C37.0375 69.8941 51.8746 60.7139 52.2602 60.2881C52.7182 59.7823 52.9736 59.0577 53.0307 58.102C53.0766 57.3352 52.9095 55.4676 52.7956 55.4723C52.7639 55.4735 52.0675 56.0308 51.248 56.7107Z" fill="#009AFF"/>
</svg>
