<svg width="28" height="28" viewBox="0 0 28 28" fill="none" xmlns="http://www.w3.org/2000/svg">
<path d="M16.3722 3.79163C17.9725 3.79162 19.2272 3.79162 20.2356 3.87401C21.2624 3.9579 22.1107 4.13157 22.8785 4.52279C24.1408 5.16594 25.167 6.19219 25.8102 7.45444C26.2793 8.37519 26.4413 9.42935 26.5022 10.7916H1.49714C1.55801 9.42935 1.72003 8.37519 2.18917 7.45444C2.83232 6.19219 3.85857 5.16594 5.12082 4.52279C5.88864 4.13157 6.73694 3.9579 7.76377 3.87401C8.77217 3.79162 10.0268 3.79162 11.6272 3.79163H16.3722Z" fill="currentColor"/>
<path fill-rule="evenodd" clip-rule="evenodd" d="M1.46066 12.5416C1.45801 12.9897 1.45801 13.4726 1.45801 13.9932V14.0391C1.458 15.6395 1.458 16.8941 1.54039 17.9025C1.62428 18.9294 1.79795 19.7777 2.18917 20.5455C2.83232 21.8077 3.85857 22.834 5.12082 23.4771C5.88864 23.8684 6.73694 24.042 7.76377 24.1259C8.77212 24.2083 10.0267 24.2083 11.6269 24.2083H16.3722C17.9724 24.2083 19.2272 24.2083 20.2356 24.1259C21.2624 24.042 22.1107 23.8684 22.8785 23.4771C24.1408 22.834 25.167 21.8077 25.8102 20.5455C26.2014 19.7777 26.3751 18.9294 26.459 17.9025C26.5414 16.8942 26.5413 15.6396 26.5413 14.0394V13.9932C26.5413 13.4726 26.5413 12.9897 26.5387 12.5416H1.46066ZM6.12467 19.8333C6.12467 19.35 6.51643 18.9583 6.99967 18.9583H9.33301C9.81626 18.9583 10.208 19.35 10.208 19.8333C10.208 20.3165 9.81626 20.7083 9.33301 20.7083H6.99967C6.51643 20.7083 6.12467 20.3165 6.12467 19.8333ZM11.958 19.8333C11.958 19.35 12.3498 18.9583 12.833 18.9583H17.4997C17.9829 18.9583 18.3747 19.35 18.3747 19.8333C18.3747 20.3165 17.9829 20.7083 17.4997 20.7083H12.833C12.3498 20.7083 11.958 20.3165 11.958 19.8333Z" fill="currentColor"/>
</svg>
