<svg width="18" height="21" viewBox="0 0 18 21" fill="none" xmlns="http://www.w3.org/2000/svg">
  <path fill-rule="evenodd" clip-rule="evenodd" d="M15.0049 13.4145L15.2672 11.5295C15.3479 10.9495 15.4217 10.4193 15.4873 9.93294C15.6221 8.93343 15.6895 8.43367 15.3906 8.09184C15.0918 7.75 14.5782 7.75 13.551 7.75H3.94905C2.92182 7.75 2.40821 7.75 2.10938 8.09184C1.81054 8.43367 1.87793 8.93343 2.01272 9.93293C2.07833 10.4195 2.15207 10.9493 2.23281 11.5295L2.49515 13.4145C2.78026 15.4632 2.92282 16.4876 3.22509 17.3103C3.79034 18.8488 4.76744 19.9947 5.93366 20.4868C6.5573 20.75 7.28822 20.75 8.75001 20.75C10.2118 20.75 10.9427 20.75 11.5664 20.4868C12.7326 19.9947 13.7097 18.8488 14.2749 17.3103C14.5772 16.4876 14.7198 15.4632 15.0049 13.4145ZM7.5 9.75C7.5 9.33579 7.16421 9 6.75 9C6.33579 9 6 9.33579 6 9.75V17.75C6 18.1642 6.33579 18.5 6.75 18.5C7.16421 18.5 7.5 18.1642 7.5 17.75V9.75ZM11.5 9.75C11.5 9.33579 11.1642 9 10.75 9C10.3358 9 10 9.33579 10 9.75V17.75C10 18.1642 10.3358 18.5 10.75 18.5C11.1642 18.5 11.5 18.1642 11.5 17.75V9.75Z" fill="#CC1010"/>
  <path d="M8.75 0C6.12665 0 4 2.12665 4 4.75V5H0.75C0.335786 5 0 5.33579 0 5.75C0 6.16421 0.335786 6.5 0.75 6.5H16.75C17.1642 6.5 17.5 6.16421 17.5 5.75C17.5 5.33579 17.1642 5 16.75 5H13.5V4.75C13.5 2.12665 11.3734 0 8.75 0Z" fill="#CC1010"/>
</svg>
