<svg width="28" height="28" viewBox="0 0 28 28" fill="none" xmlns="http://www.w3.org/2000/svg">
<path fill-rule="evenodd" clip-rule="evenodd" d="M5.90459 3.44744C6.02725 3.35832 6.1541 3.27633 6.28592 3.20089C6.32827 3.2952 6.38816 3.38355 6.46561 3.46099C7.97125 4.96658 9.15308 6.14653 10.1949 6.98034C11.2496 7.82448 12.2373 8.37856 13.3753 8.5588C14.0705 8.66892 14.7788 8.66892 15.4741 8.5588C16.5803 8.38359 17.5443 7.85522 18.566 7.0506C19.5747 6.25623 20.707 5.13661 22.1324 3.71223C22.1782 3.66653 22.2178 3.61702 22.2513 3.56473C22.6824 3.90051 23.0644 4.29538 23.3859 4.73796C24.5 6.27134 24.5 8.45869 24.5 12.8334V15.1667C24.5 19.5414 24.5 21.7287 23.3859 23.2621C23.0261 23.7573 22.5906 24.1928 22.0954 24.5526C20.562 25.6667 18.3747 25.6667 14 25.6667C9.62531 25.6667 7.43797 25.6667 5.90459 24.5526C5.40937 24.1928 4.97387 23.7573 4.61407 23.2621C3.5 21.7287 3.5 19.5414 3.5 15.1667V12.8334C3.5 8.45869 3.5 6.27134 4.61407 4.73796C4.97387 4.24274 5.40937 3.80724 5.90459 3.44744ZM9.33333 10.7917C8.85008 10.7917 8.45833 11.1835 8.45833 11.6667C8.45833 12.15 8.85008 12.5417 9.33333 12.5417H18.6667C19.1499 12.5417 19.5417 12.15 19.5417 11.6667C19.5417 11.1835 19.1499 10.7917 18.6667 10.7917H9.33333ZM9.33333 15.4584C8.85008 15.4584 8.45833 15.8501 8.45833 16.3334C8.45833 16.8166 8.85008 17.2084 9.33333 17.2084H18.6667C19.1499 17.2084 19.5417 16.8166 19.5417 16.3334C19.5417 15.8501 19.1499 15.4584 18.6667 15.4584H9.33333ZM9.33333 20.125C8.85008 20.125 8.45833 20.5168 8.45833 21C8.45833 21.4833 8.85008 21.875 9.33333 21.875H18.6667C19.1499 21.875 19.5417 21.4833 19.5417 21C19.5417 20.5168 19.1499 20.125 18.6667 20.125H9.33333Z" fill="currentColor"/>
<path d="M14 2.33337C17.1499 2.33337 19.1658 2.33337 20.6201 2.74926C19.313 4.05291 18.3353 5.00474 17.4833 5.67576C16.5855 6.38281 15.8973 6.71996 15.2003 6.83034C14.6864 6.91174 14.1629 6.91174 13.649 6.83034C12.9321 6.71679 12.2245 6.36333 11.2884 5.61406C10.4167 4.91642 9.41385 3.93221 8.06937 2.58966C9.46019 2.33337 11.3195 2.33337 14 2.33337Z" fill="currentColor"/>
</svg>
