<svg width="28" height="28" viewBox="0 0 28 28" fill="none" xmlns="http://www.w3.org/2000/svg">
  <path d="M10.0918 12.0961C9.08247 11.0924 8.45768 9.70248 8.45768 8.16663C8.45768 6.63077 9.08247 5.24085 10.0918 4.23715C9.51067 3.95184 8.85705 3.79163 8.16602 3.79163C5.74977 3.79163 3.79102 5.75038 3.79102 8.16663C3.79102 10.5829 5.74977 12.5416 8.16602 12.5416C8.85705 12.5416 9.51067 12.3814 10.0918 12.0961Z" fill="#DDDDDD"/>
  <path d="M9.62435 8.16663C9.62435 5.75038 11.5831 3.79163 13.9993 3.79163C16.4156 3.79163 18.3743 5.75038 18.3743 8.16663C18.3743 10.5829 16.4156 12.5416 13.9993 12.5416C11.5831 12.5416 9.62435 10.5829 9.62435 8.16663Z" fill="#DDDDDD"/>
  <path d="M17.9069 4.23715C18.9162 5.24085 19.541 6.63077 19.541 8.16663C19.541 9.70248 18.9162 11.0924 17.9069 12.0961C18.488 12.3814 19.1416 12.5416 19.8327 12.5416C22.2489 12.5416 24.2077 10.5829 24.2077 8.16663C24.2077 5.75038 22.2489 3.79163 19.8327 3.79163C19.1416 3.79163 18.488 3.95184 17.9069 4.23715Z" fill="#DDDDDD"/>
  <path d="M6.12435 18.6666C6.12435 16.2504 8.0831 14.2916 10.4993 14.2916H17.4993C19.9156 14.2916 21.8743 16.2504 21.8743 18.6666C21.8743 21.0829 19.9156 23.0416 17.4993 23.0416H10.4993C8.0831 23.0416 6.12435 21.0829 6.12435 18.6666Z" fill="#DDDDDD"/>
  <path d="M0.291016 17.5C0.291016 15.0837 2.24977 13.125 4.66602 13.125H10.4993C7.43877 13.125 4.95768 15.606 4.95768 18.6666C4.95768 19.8623 5.33636 20.9696 5.98033 21.875H4.66602C2.24977 21.875 0.291016 19.9162 0.291016 17.5Z" fill="#DDDDDD"/>
  <path d="M23.041 18.6666C23.041 19.8623 22.6623 20.9696 22.0184 21.875H23.3327C25.7489 21.875 27.7077 19.9162 27.7077 17.5C27.7077 15.0837 25.7489 13.125 23.3327 13.125H17.4993C20.5599 13.125 23.041 15.606 23.041 18.6666Z" fill="#DDDDDD"/>
</svg>
