<svg width="18" height="20" viewBox="0 0 18 20" fill="none" xmlns="http://www.w3.org/2000/svg">
  <path d="M0 2.75C0 1.23122 1.23122 0 2.75 0C4.26878 0 5.5 1.23122 5.5 2.75C5.5 4.26878 4.26878 5.5 2.75 5.5C1.23122 5.5 0 4.26878 0 2.75Z" fill="#FAFAFA"/>
  <path d="M8 2.75C8 2.33579 8.33579 2 8.75 2L16.75 2C17.1642 2 17.5 2.33579 17.5 2.75C17.5 3.16421 17.1642 3.5 16.75 3.5L8.75 3.5C8.33579 3.5 8 3.16421 8 2.75Z" fill="#FAFAFA"/>
  <path d="M12 9.75C12 8.23122 13.2312 7 14.75 7C16.2688 7 17.5 8.23122 17.5 9.75C17.5 11.2688 16.2688 12.5 14.75 12.5C13.2312 12.5 12 11.2688 12 9.75Z" fill="#FAFAFA"/>
  <path d="M0 9.75C0 9.33579 0.335787 9 0.75 9L8.75 9C9.16421 9 9.5 9.33579 9.5 9.75C9.5 10.1642 9.16421 10.5 8.75 10.5L0.75 10.5C0.335786 10.5 0 10.1642 0 9.75Z" fill="#FAFAFA"/>
  <path d="M0 16.75C0 15.2312 1.23122 14 2.75 14C4.26878 14 5.5 15.2312 5.5 16.75C5.5 18.2688 4.26878 19.5 2.75 19.5C1.23122 19.5 0 18.2688 0 16.75Z" fill="#FAFAFA"/>
  <path d="M8 16.75C8 16.3358 8.33579 16 8.75 16H16.75C17.1642 16 17.5 16.3358 17.5 16.75C17.5 17.1642 17.1642 17.5 16.75 17.5H8.75C8.33579 17.5 8 17.1642 8 16.75Z" fill="#FAFAFA"/>
</svg>
