<svg width="28" height="28" viewBox="0 0 28 28" fill="none" xmlns="http://www.w3.org/2000/svg">
<path d="M14 1.16663C16.1715 1.16663 17.2572 1.16663 18.1359 1.45213C19.6737 1.95177 20.9238 3.06269 21.6061 4.50462C20.8825 4.19384 20.069 4.02505 19.1356 3.92836C17.8154 3.79161 16.1568 3.79162 14.05 3.79163H13.95C11.8432 3.79162 10.1848 3.79161 8.86454 3.92835C7.93105 4.02503 7.11755 4.19383 6.39392 4.50462C7.07618 3.0627 8.32633 1.95177 9.86406 1.45213C10.7427 1.16663 11.8285 1.16663 14 1.16663Z" fill="currentColor"/>
<path fill-rule="evenodd" clip-rule="evenodd" d="M4.61407 7.07121C3.5 8.60459 3.5 10.7919 3.5 15.1666C3.5 19.5413 3.5 21.7287 4.61407 23.262C4.97387 23.7573 5.40937 24.1928 5.90459 24.5526C7.43797 25.6666 9.62531 25.6666 14 25.6666C18.3747 25.6666 20.562 25.6666 22.0954 24.5526C22.5906 24.1928 23.0261 23.7573 23.3859 23.262C24.5 21.7287 24.5 19.5413 24.5 15.1666C24.5 10.7919 24.5 8.60459 23.3859 7.07121C23.0261 6.57599 22.5906 6.14049 22.0954 5.78069C22.0686 5.76121 22.0416 5.74207 22.0144 5.72326C20.4849 4.66663 18.2982 4.66663 14 4.66663C9.70196 4.66663 7.51528 4.66663 5.98579 5.72316C5.95852 5.742 5.93145 5.76118 5.90459 5.78069C5.40937 6.14049 4.97387 6.57599 4.61407 7.07121ZM9.33333 16.625C8.85008 16.625 8.45833 17.0167 8.45833 17.5C8.45833 17.9832 8.85008 18.375 9.33333 18.375H18.6667C19.1499 18.375 19.5417 17.9832 19.5417 17.5C19.5417 17.0167 19.1499 16.625 18.6667 16.625H9.33333Z" fill="currentColor"/>
</svg>
