<svg width="45" height="52" viewBox="0 0 45 52" fill="none" xmlns="http://www.w3.org/2000/svg">
<path fill-rule="evenodd" clip-rule="evenodd" d="M20.9962 0.0400393C20.924 0.0548635 20.6067 0.11469 20.2909 0.172928C19.9752 0.231232 19.7168 0.301051 19.7168 0.328119C19.7168 0.355186 19.8337 0.582249 19.9765 0.832805C20.4891 1.73199 20.8306 3.17239 20.7425 4.06369L20.7028 4.46487L21.33 4.75779C22.5407 5.32329 23.8918 6.3322 24.6877 7.265C25.199 7.86419 25.4247 8.20111 25.7404 8.8367C26.5029 10.3713 26.6511 11.8801 26.2081 13.6006C25.9111 14.7545 25.6016 15.1198 24.9209 15.1198C24.5368 15.1198 24.3079 14.9864 24.0585 14.6174C23.8685 14.3362 23.889 13.9545 24.1434 13.0351C24.2976 12.4783 24.3146 12.3157 24.2927 11.6123C24.2739 11.0086 24.2325 10.7149 24.1202 10.388C23.7284 9.24768 22.8154 8.16637 21.521 7.30994C21.0025 6.96686 20.2345 6.54953 20.1217 6.54953C20.0897 6.54953 19.9503 6.73451 19.812 6.96064C19.0105 8.27047 17.5128 9.29453 16.0126 9.55839C15.2872 9.68605 14.8972 9.68625 14.1762 9.55938C12.5982 9.28182 11.1185 8.24565 10.3679 6.89254C10.2122 6.61181 10.0721 6.4316 10.0233 6.4494C9.93287 6.48236 6.9767 8.77231 5.67704 9.81622C2.83391 12.0998 1.44994 14.3301 0.928306 17.4692C0.680903 18.9582 0.146144 23.9122 0.0330386 25.7637C-0.0913514 27.7999 0.129546 29.3114 0.797092 30.9911C1.55478 32.898 2.45326 34.0738 4.59453 35.9613C5.53671 36.7918 9.252 39.8851 11.6472 41.8333C16.5723 45.8391 18.8304 47.0688 21.5841 47.2448C24.7037 47.4442 26.9066 46.5956 30.7076 43.7301C32.9136 42.0671 39.4992 36.6347 40.8537 35.3606C42.4901 33.8214 43.4128 32.4518 44.057 30.6058C44.4712 29.4189 44.5919 28.7377 44.6292 27.3759C44.674 25.7417 44.5431 24.3842 43.8881 19.6862C43.4666 16.6636 43.2018 15.6058 42.5201 14.223C41.6409 12.4394 40.7365 11.4124 38.3491 9.48685C36.5864 8.06518 32.9364 5.20033 31.6648 4.24046C28.1564 1.59222 26.0565 0.461074 23.9861 0.1043C23.4146 0.00582443 21.3762 -0.0379865 20.9962 0.0400393ZM14.6651 0.175774C13.5612 0.362003 12.4762 1.2236 12.0033 2.28968C11.8265 2.68802 11.6468 3.51182 11.6483 3.91611C11.6515 4.69955 12.0488 5.7616 12.5628 6.36059C12.9025 6.75641 13.4542 7.12377 14.0017 7.31874C14.6155 7.5374 15.5676 7.5374 16.1815 7.31874C17.3225 6.91246 18.1855 5.94902 18.5003 4.72992C18.6274 4.23735 18.6297 3.25405 18.5048 2.78027C18.1699 1.51108 17.1852 0.520702 15.9712 0.232026C15.574 0.137588 15.0304 0.114161 14.6651 0.175774ZM36.8449 19.7302C36.5292 19.8217 35.936 20.4572 35.6449 21.0161C33.9359 24.2968 34.5074 30.6166 36.5695 31.2398C37.2966 31.4596 38.1554 30.6679 38.6826 29.2918C39.9842 25.894 39.4262 20.6478 37.6722 19.7913C37.3661 19.6418 37.1938 19.6291 36.8449 19.7302ZM27.5794 23.3814C26.4815 23.7946 25.5823 24.978 25.0659 26.6891C24.7738 27.6573 24.632 28.7074 24.6309 29.9109C24.6293 31.7887 24.9125 33.2352 25.5605 34.6579C26.0831 35.8055 26.8255 36.6675 27.6392 37.0716C28.0259 37.2636 28.1424 37.29 28.6051 37.2899C29.0432 37.2899 29.1966 37.2591 29.5204 37.1061C30.2566 36.7585 30.8384 36.1254 31.3282 35.1391C33.212 31.346 32.1326 25.0559 29.3397 23.5511C28.9889 23.3621 28.8598 23.33 28.3769 23.312C28.0184 23.2985 27.7336 23.3234 27.5794 23.3814ZM37.2338 41.2026C31.8141 45.6989 29.437 47.4103 27.2871 48.3639C24.2001 49.7333 20.8596 49.783 17.7899 48.5054C15.5487 47.5726 13.4333 46.0811 8.15388 41.7112C7.26091 40.9721 6.50414 40.3673 6.47212 40.3673C6.31408 40.3673 6.21481 41.6161 6.32897 42.1687C6.48892 42.9428 7.04185 43.762 7.76451 44.2955C8.26482 44.6648 18.9154 51.0231 19.4875 51.2941C21.5006 52.2475 23.8917 52.2344 25.9167 51.2591C26.9093 50.7809 37.689 44.1111 37.9692 43.8018C38.3019 43.4343 38.4875 42.9078 38.529 42.2135C38.5623 41.6564 38.4409 40.2995 38.3582 40.3029C38.3351 40.3038 37.8292 40.7087 37.2338 41.2026Z" fill="currentColor"/>
</svg>
