<svg width="22" height="22" viewBox="0 0 22 22" fill="none" xmlns="http://www.w3.org/2000/svg">
  <path fill-rule="evenodd" clip-rule="evenodd" d="M0 10.75C0 4.81294 4.81294 0 10.75 0C16.6871 0 21.5 4.81294 21.5 10.75C21.5 13.7985 20.2301 16.5516 18.1925 18.5071C16.2617 20.36 13.6382 21.5 10.75 21.5C7.86182 21.5 5.23833 20.36 3.30751 18.5071C1.26989 16.5516 0 13.7985 0 10.75ZM16.8331 17.7185C16.4021 16.4292 15.1839 15.5 13.75 15.5H7.75C6.31613 15.5 5.09791 16.4292 4.66687 17.7185C6.29352 19.1398 8.42062 20 10.75 20C13.0794 20 15.2065 19.1398 16.8331 17.7185ZM10.75 3C8.12665 3 6 5.12665 6 7.75C6 10.3734 8.12665 12.5 10.75 12.5C13.3734 12.5 15.5 10.3734 15.5 7.75C15.5 5.12665 13.3734 3 10.75 3Z" fill="#DDDDDD"/>
</svg>
