<svg width="15" height="15" viewBox="0 0 15 15" fill="none" xmlns="http://www.w3.org/2000/svg">
  <path d="M1.84212 0.502231C1.84335 0.226091 1.62049 0.00123711 1.34435 5.08345e-06C1.06821 -0.0012269 0.843359 0.22163 0.842127 0.497769L0.836091 1.85045C0.833833 2.35369 0.83195 2.77345 0.868801 3.1109C0.907455 3.46485 0.99385 3.79107 1.21316 4.07446C1.27255 4.1512 1.33791 4.22299 1.40861 4.2892C1.45024 4.32818 1.49371 4.36523 1.5389 4.4002C1.82229 4.61951 2.14851 4.7059 2.50246 4.74456C2.83992 4.78141 3.25964 4.77953 3.76288 4.77727L5.11559 4.77123C5.39173 4.77 5.61459 4.54515 5.61335 4.269C5.61212 3.99287 5.38727 3.77001 5.11113 3.77124L3.78732 3.77715C3.24771 3.77955 2.88525 3.78041 2.61102 3.75047C2.5904 3.74822 2.57066 3.74582 2.55177 3.74329C2.82744 3.43247 3.13403 3.14968 3.46668 2.89975C4.49738 2.12536 5.7779 1.66667 7.16699 1.66667C10.5727 1.66667 13.3337 4.42758 13.3337 7.83333C13.3337 11.2391 10.5727 14 7.16699 14C3.76123 14 1.00033 11.2391 1.00033 7.83333C1.00033 7.55719 0.776467 7.33333 0.500325 7.33333C0.224183 7.33333 0.000325203 7.55719 0.000325203 7.83333C0.000325203 11.7914 3.20895 15 7.16699 15C11.125 15 14.3337 11.7914 14.3337 7.83333C14.3337 3.87529 11.125 0.666667 7.16699 0.666667C5.55388 0.666667 4.06395 1.20021 2.866 2.10025C2.50383 2.37236 2.16831 2.67797 1.86402 3.01252L1.86289 3.00234C1.83294 2.72811 1.8338 2.36565 1.83621 1.82604L1.84212 0.502231Z" fill="#FAFAFA"/>
</svg>
