<svg width="24" height="24" viewBox="0 0 24 24" fill="none" xmlns="http://www.w3.org/2000/svg">
  <path fill-rule="evenodd" clip-rule="evenodd" d="M2.7481 22.7268C4.50054 24 7.00036 24 12 24C16.9996 24 19.4995 24 21.2519 22.7268C21.8179 22.3156 22.3156 21.8179 22.7268 21.2519C24 19.4995 24 16.9996 24 12C24 7.00036 24 4.50054 22.7268 2.7481C22.3156 2.18213 21.8179 1.68441 21.2519 1.27322C19.4995 8.52349e-07 16.9996 7.43078e-07 12 5.24537e-07C7.00036 3.05995e-07 4.50054 1.96725e-07 2.7481 1.27322C2.18213 1.68441 1.68442 2.18213 1.27322 2.7481C8.52349e-07 4.50054 7.43078e-07 7.00036 5.24537e-07 12C3.05995e-07 16.9996 1.96725e-07 19.4995 1.27322 21.2519C1.68442 21.8179 2.18213 22.3156 2.7481 22.7268ZM10.0373 4.62308C9.64502 4.2343 9.01186 4.23713 8.62308 4.62939C8.2343 5.02165 8.23713 5.65481 8.62939 6.04359L10.98 8.37333C11.934 9.31885 12.5884 9.96957 13.0312 10.5209C13.4613 11.0565 13.6089 11.4006 13.6482 11.7087C13.6728 11.9021 13.6728 12.0979 13.6482 12.2913C13.6089 12.5994 13.4613 12.9435 13.0312 13.4791C12.5884 14.0304 11.934 14.6812 10.98 15.6267L8.62939 17.9564C8.23713 18.3452 8.2343 18.9783 8.62308 19.3706C9.01186 19.7629 9.64502 19.7657 10.0373 19.3769L12.4303 17.0052C13.3315 16.112 14.0682 15.3819 14.5906 14.7314C15.1338 14.055 15.5271 13.3684 15.6321 12.5442C15.6782 12.1828 15.6782 11.8172 15.6321 11.4558C15.5271 10.6316 15.1338 9.94505 14.5906 9.26861C14.0682 8.61812 13.3316 7.88806 12.4303 6.99481L10.0373 4.62308Z" fill="#FAFAFA"/>
</svg>
