<svg width="18" height="12" viewBox="0 0 18 12" fill="none" xmlns="http://www.w3.org/2000/svg">
  <path d="M17.3262 1.23016C17.5914 0.911949 17.5484 0.439026 17.2302 0.173853C16.9119 -0.0913202 16.439 -0.0483271 16.1739 0.269881L10.7832 6.73869C9.70034 8.0381 8.93861 8.94936 8.27791 9.54597C7.63262 10.1287 7.18728 10.3139 6.75002 10.3139C6.31276 10.3139 5.86742 10.1287 5.22213 9.54597C4.56143 8.94935 3.79969 8.03809 2.71686 6.73869L1.32618 5.06988C1.06101 4.75167 0.588088 4.70868 0.269881 4.97385C-0.0483271 5.23903 -0.0913202 5.71195 0.173853 6.03016L1.60312 7.74528C2.63839 8.98764 3.46748 9.98257 4.21684 10.6592C4.99089 11.3582 5.78216 11.8139 6.75002 11.8139C7.71788 11.8139 8.50914 11.3582 9.2832 10.6592C10.0326 9.98258 10.8616 8.98766 11.8969 7.74532L17.3262 1.23016Z" fill="#184161"/>
</svg>
